<svg width="276" height="327" viewBox="0 0 276 327" fill="none" xmlns="http://www.w3.org/2000/svg">
<path d="M8.78346 97.6578C5.82536 114.091 8.78346 132 8.78346 144.197V216.091C8.78346 230.213 8.78346 235.669 13.4897 241.126C18.1959 246.582 36.0115 268.407 62.231 288.307C88.4505 308.206 105.594 319.439 122.065 319.439C135.242 319.439 154.672 308.527 160.722 303.071C176.969 289.055 211.817 257.88 221.229 245.298C230.641 232.717 230.977 220.585 229.968 216.091V166.022C267.281 134.247 269.298 129.754 268.289 120.767C267.281 111.78 238.708 111.138 221.229 111.138C232.994 93.4853 245.767 84.8195 238.708 75.5117C231.649 66.204 213.833 72.6231 187.614 81.289C205.43 56.8962 215.85 37.6388 205.094 30.2567C194.337 22.8747 163.747 38.6016 135.847 54.6495C137.864 18.0603 138.873 7.46875 123.41 7.46875C107.947 7.46875 86.7698 51.7609 70.9708 72.6231C54.4996 27.6891 45.4237 25.1214 36.0115 26.4053C26.5994 27.6891 12.4811 77.1165 8.78346 97.6578Z" fill="#F4F4F4"/>
<path d="M123.412 0C127.953 3.74161e-05 132.745 0.742893 136.696 3.76074C140.764 6.86842 142.616 11.3573 143.512 15.8896C144.394 20.3478 144.537 25.7902 144.399 32.0088C144.335 34.8722 144.205 38.0232 144.037 41.4619C154.345 35.7933 164.751 30.5006 174.116 26.7373C180.6 24.1316 186.937 22.1114 192.606 21.3027C198.045 20.527 204.303 20.6546 209.322 24.0986C214.033 27.3317 216.433 32.0582 216.853 37.3213C217.241 42.1866 215.943 47.2876 214.013 52.1504C212.133 56.8869 209.377 62.0545 206.018 67.5186C210.727 66.1304 215.102 65.0038 219.047 64.3057C227.919 62.7354 238.317 62.6336 244.662 70.999C247.587 74.8561 248.72 79.1858 247.985 83.7188C247.328 87.7735 245.26 91.3887 243.197 94.4092C241.144 97.4144 238.481 100.678 235.904 103.908C241.303 104.115 246.874 104.493 251.942 105.182C256.888 105.853 261.888 106.884 265.909 108.604C269.369 110.085 274.639 113.196 275.632 119.331L275.715 119.935L275.816 120.933C276.032 123.318 276.058 126.099 275.152 129.235C274.141 132.733 272.168 136.021 269.302 139.555C264.012 146.079 254.334 155.017 237.44 169.466V215.385C238.66 222.403 237.424 236.121 227.212 249.773C222.032 256.697 210.441 268.098 198.635 279.11C186.631 290.309 173.783 301.672 165.603 308.728C161.801 312.115 154.787 316.52 147.243 320.063C139.693 323.609 130.33 326.91 122.067 326.91C112.08 326.91 102.398 323.491 92.2038 317.88C82.0523 312.293 70.8245 304.206 57.7165 294.258C30.7793 273.814 12.4845 251.397 7.83462 246.006C0.943694 238.017 1.31508 229.28 1.31508 216.092V144.197C1.31506 138.262 0.612589 131.554 0.213522 122.859C-0.164469 114.624 -0.194632 105.378 1.43325 96.335C3.35598 85.6539 7.91226 67.7943 13.1901 52.3896C15.8229 44.705 18.7307 37.3461 21.6989 31.7109C23.1709 28.9163 24.8079 26.2553 26.6139 24.1416C28.1943 22.292 30.99 19.5524 35.0036 19.0049C37.8282 18.6196 41.4194 18.4033 45.3639 19.6396C49.3531 20.8901 52.967 23.3862 56.3903 27.1787C61.5271 32.8697 66.8079 42.1461 72.8307 56.749C74.2878 54.4939 75.7903 52.1246 77.3307 49.6709C81.7265 42.6691 86.4328 35.0228 91.1198 28.0547C95.7833 21.1213 100.684 14.4644 105.591 9.47754C110.139 4.85647 116.268 0 123.412 0ZM16.2545 216.092C16.2545 231.148 16.6266 233.325 19.1481 236.248C23.911 241.77 41.2474 263.003 66.7487 282.357C79.8599 292.308 90.314 299.787 99.4069 304.792C108.457 309.773 115.583 311.971 122.067 311.971C126.981 311.971 133.92 309.815 140.892 306.541C147.788 303.302 153.443 299.579 155.721 297.524L155.783 297.469L155.844 297.415C163.912 290.456 176.611 279.224 188.445 268.186C200.478 256.961 211.016 246.482 215.249 240.824C223.389 229.943 223.199 220.034 222.681 217.728L222.501 216.92V162.572L225.127 160.336C243.91 144.34 253.173 135.727 257.699 130.146C259.875 127.461 260.549 125.954 260.799 125.089C260.971 124.497 261.042 123.886 260.974 122.793C260.748 122.668 260.441 122.514 260.031 122.339C257.865 121.412 254.44 120.598 249.932 119.985C241.034 118.777 229.979 118.608 221.23 118.608H207.275L215.014 106.996C218.138 102.309 221.305 98.2557 224.076 94.7783C226.938 91.187 229.17 88.4584 230.861 85.9834C232.58 83.4674 233.118 82.0676 233.238 81.3281C233.28 81.067 233.363 80.823 232.758 80.0264C232.044 79.0842 230.005 77.538 221.65 79.0166C213.711 80.4217 203.368 83.9502 189.96 88.3818L167.848 95.6904L181.584 76.8838C190.475 64.7098 197.022 54.4628 200.128 46.6387C201.685 42.7156 202.088 40.0935 201.962 38.5098C201.867 37.3239 201.536 36.8748 200.869 36.417C200.509 36.17 198.91 35.4945 194.715 36.0928C190.752 36.6582 185.681 38.1895 179.686 40.5986C167.733 45.4022 153.501 53.1145 139.573 61.126L127.632 67.9941L128.39 54.2393C128.899 45.019 129.329 37.6588 129.463 31.6768C129.597 25.6189 129.404 21.5525 128.857 18.7891C128.327 16.1071 127.659 15.6567 127.628 15.6328C127.482 15.5214 126.602 14.9395 123.412 14.9395C122.824 14.9395 120.507 15.6198 116.241 19.9551C112.335 23.9249 108.055 29.6454 103.516 36.3926C99.0012 43.1052 94.4847 50.4438 89.9831 57.6143C85.5494 64.6764 81.1019 71.6214 76.9274 77.1338L68.6676 88.04L63.9586 75.1953C55.746 52.7909 49.7586 42.1275 45.3004 37.1885C43.2197 34.8833 41.7706 34.1697 40.8961 33.8955C40.1717 33.6684 39.3514 33.5867 38.1149 33.6875C38.0712 33.7362 38.0215 33.7879 37.9713 33.8467C37.1893 34.762 36.1494 36.3335 34.9166 38.6738C32.4751 43.3092 29.8583 49.8323 27.3229 57.2324C22.2642 71.9975 17.9113 89.1223 16.1364 98.9824C14.8062 106.372 14.7758 114.298 15.1374 122.175C15.4778 129.592 16.2545 137.936 16.2545 144.197V216.092Z" fill="black"/>
<path d="M157.894 188.829C153.684 187.488 149.184 189.814 147.843 194.024L145.614 201.024C144.273 205.234 146.599 209.734 150.809 211.075C155.019 212.415 159.518 210.089 160.859 205.879L163.089 198.879C164.43 194.67 162.104 190.169 157.894 188.829ZM94.982 195.459C94.434 191.075 90.4363 187.965 86.0523 188.513C81.6682 189.061 78.558 193.06 79.106 197.444L79.981 204.444C80.529 208.828 84.5275 211.938 88.9117 211.39C93.2957 210.842 96.405 206.843 95.857 202.459L94.982 195.459Z" fill="black"/>
<path d="M147.051 265.91C156.14 258.412 157.429 244.966 149.931 235.878C142.724 227.142 130.021 225.613 120.975 232.168C111.7 225.452 98.7011 227.257 91.6247 236.37C84.3988 245.676 86.0852 259.079 95.3913 266.305L121.759 286.777L147.051 265.91Z" fill="black"/>
<path d="M94.7766 241.814C95.5283 242.623 96.7945 242.67 97.6038 241.919L100.833 238.919C101.643 238.167 101.689 236.901 100.938 236.092C100.186 235.282 98.9199 235.235 98.1106 235.987L94.8811 238.987C94.0719 239.739 94.025 241.005 94.7766 241.814Z" fill="white"/>
</svg>
